<svg width="52" height="59" viewBox="0 0 52 59" fill="none" xmlns="http://www.w3.org/2000/svg">
<path d="M50.427 39.815C49.49 39.122 48.239 38.92 46.992 39.265L31.703 43.492C31.891 43.028 32 42.523 32 41.991C32 39.79 30.206 38 28 38H18.623C17.957 37 16.261 34 14 34H10V33C10 31.346 8.654 30 7 30H3C1.346 30 0 31.346 0 33V50C0 51.654 1.346 53 3 53H7C8.654 53 10 51.655 10 50V49.248L22.139 57.45C23.663 58.482 25.437 59 27.214 59C28.856 59 30.501 58.558 31.956 57.669L50.129 46.568C51.283 45.865 52 44.587 52 43.235V42.922C52 41.691 51.427 40.559 50.427 39.815ZM8 50C8 50.552 7.551 51 7 51H6V47H4V51H3C2.449 51 2 50.552 2 50V33C2 32.448 2.449 32 3 32H7C7.551 32 8 32.449 8 33V50ZM50 43.235C50 43.895 49.65 44.518 49.087 44.862L30.914 55.962C28.549 57.405 25.545 57.34 23.26 55.793L10 46.835V36H14C15.059 36 16.469 38.034 17.088 39.409L17.354 40H28C29.103 40 30 40.893 30 41.99C30 43.098 29.103 44 28 44H18V46H28H30L47.524 41.193C48.165 41.015 48.804 41.1 49.234 41.422C49.721 41.783 50 42.33 50 42.922V43.235Z" fill="#216E7A"/>
<path opacity="0.8" d="M32.4999 20.2332C31.7334 20.2332 30.9983 20.5376 30.4563 21.0796C29.9144 21.6216 29.6099 22.3567 29.6099 23.1232C29.6099 23.8897 29.9144 24.6248 30.4563 25.1668C30.9983 25.7088 31.7334 26.0132 32.4999 26.0132C33.2664 26.0132 34.0015 25.7088 34.5435 25.1668C35.0855 24.6248 35.39 23.8897 35.39 23.1232C35.39 22.3567 35.0855 21.6216 34.5435 21.0796C34.0015 20.5376 33.2664 20.2332 32.4999 20.2332V20.2332Z" fill="#216E7A"/>
<path d="M43.194 13.5622C41.603 12.2551 39.5235 11.8435 37 12.3412C35.431 12.6846 34.3464 13.1818 33.589 13.723L33.078 13.4431V11.5631C33.078 11.4185 33.0953 11.2295 33.1797 11.1457C33.3526 10.974 33.9648 10.9797 34.5019 10.9832L37.1249 10.9855C39.3553 10.9855 41.1717 9.17022 41.1717 6.93981V4.04688H35.968C34.4955 4.04688 33.2075 4.84064 32.4999 6.02002C31.7922 4.84064 30.5042 4.04688 29.0317 4.04688H23.828V6.93981C23.828 9.17022 25.6445 10.9855 27.8749 10.9855L30.4972 10.9838C31.0372 10.9797 31.6465 10.9745 31.82 11.1462C31.9038 11.2301 31.9217 11.4191 31.9217 11.5637V13.4437L31.3754 13.7461C30.6181 13.2078 29.5381 12.7153 27.9882 12.3753C25.4762 11.881 23.3927 12.2915 21.8005 13.5992C18.6653 16.1771 18.6289 21.2767 18.6289 21.4924C18.6289 26.0179 21.6421 30.6909 25.6375 32.3623C26.5851 32.7583 27.521 32.9549 28.4235 32.9549C29.9018 32.9549 31.2922 32.4288 32.5004 31.3939C34.4447 33.0572 36.8583 33.4041 39.3553 32.36C43.3553 30.6869 46.372 26.0081 46.372 21.4768C46.3714 21.2605 46.3355 16.1447 43.194 13.5622ZM35.968 5.20312H40.0155V6.93981C40.0155 8.53312 38.7182 9.82986 37.1249 9.82986L34.5117 9.82812C33.9978 9.82639 33.367 9.8235 33.078 9.93681V9.82986C33.078 8.87364 33.8556 8.09375 34.8118 8.09375H36.5467V6.9375H34.8118C34.192 6.9375 33.6203 7.13753 33.1491 7.47111C33.4353 6.17669 34.5886 5.20312 35.968 5.20312ZM30.7684 9.82697C30.6765 9.82697 30.5828 9.82755 30.4891 9.82812L27.8749 9.82928C26.2815 9.82928 24.9842 8.53255 24.9842 6.93923V5.20312H29.0317C30.4111 5.20312 31.5645 6.17669 31.85 7.47111C31.3795 7.13753 30.8077 6.9375 30.1879 6.9375H28.453V8.09375H30.1879C31.1442 8.09375 31.9217 8.87364 31.9217 9.82928V9.9345C31.3436 9.84084 31.18 9.82697 30.7684 9.82697ZM38.909 31.2933C36.6924 32.2206 34.5603 31.8298 32.9057 30.1972L32.4999 29.7971L32.094 30.1972C30.436 31.8327 28.3021 32.2235 26.0827 31.2956C22.5509 29.8185 19.784 25.5121 19.784 21.4918C19.784 21.4444 19.8158 16.7263 22.5341 14.4919C23.4765 13.7172 24.6507 13.3287 26.0341 13.3287C26.5752 13.3287 27.1482 13.3882 27.7523 13.5073C31.217 14.2664 31.9217 15.7834 31.9217 16.4361V16.7656H33.078V16.3592C33.078 15.5822 33.892 14.2057 37.2359 13.4732C39.3917 13.0465 41.1469 13.3778 42.4569 14.4531C45.1764 16.6841 45.2157 21.4299 45.2157 21.4773C45.2157 25.5028 42.4453 29.8145 38.909 31.2933Z" fill="#216E7A"/>
</svg>
